# xmcd CD database file
#
# Track frame offsets:
#	150
#	20100
#	47738
#	68625
#	93125
#	117338
#	142145
#	161900
#	181838
#	203275
#	222768
#	249075
#
# Disc length: 3519 seconds
#
# Revision: 4
# Processed by: cddbd v1.5.2PL0 Copyright (c) Steve Scherf et al.
# Submitted via: CDex 1.70beta3
#
DISCID=a00dbd0c
DTITLE=シャカタク - シャカタク・グレイテスト・ヒッツ
DYEAR=2002
DGENRE=Fusion
TTITLE0=ナイト・バーズ 
TTITLE1=イージアー・セッド・ザン・ダーン
TTITLE2=ロンリー・アフタヌーン 
TTITLE3=ストレンジャー 
TTITLE4=ルーズ・マイセルフ 
TTITLE5=ストリートウォーキン 
TTITLE6=インヴィテーション 
TTITLE7=ダーク・イズ・ザ・ナイト 
TTITLE8=愛はサンバにのせて 
TTITLE9=サマー・スカイ 
TTITLE10=愛のナイト・パラダイス 
TTITLE11=ダウン・オン・ザ・ストリート
EXTD=YEAR: 2002
EXTT0=
EXTT1=
EXTT2=
EXTT3=
EXTT4=
EXTT5=
EXTT6=
EXTT7=
EXTT8=
EXTT9=
EXTT10=
EXTT11=
PLAYORDER=
